Coordinates
version=1
nRows=13
nColumns=40
inDegrees=yes

Units are S.I. units (second, meters, Newtons, ...)
Angles are in degrees.

endheader
time	pelvis_tilt	pelvis_list	pelvis_rotation	pelvis_tx	pelvis_ty	pelvis_tz	hip_flexion_r	hip_adduction_r	hip_rotation_r	knee_angle_r	knee_angle_r_beta	ankle_angle_r	subtalar_angle_r	mtp_angle_r	hip_flexion_l	hip_adduction_l	hip_rotation_l	knee_angle_l	knee_angle_l_beta	ankle_angle_l	subtalar_angle_l	mtp_angle_l	lumbar_extension	lumbar_bending	lumbar_rotation	arm_flex_r	arm_add_r	arm_rot_r	elbow_flex_r	pro_sup_r	wrist_flex_r	wrist_dev_r	arm_flex_l	arm_add_l	arm_rot_l	elbow_flex_l	pro_sup_l	wrist_flex_l	wrist_dev_l
     23.16000000	     -5.20439840	     -5.00168688	      3.29087666	      0.86229332	      0.92414176	      0.45191662	      4.74319414	     -1.14501881	    -13.75763382	     29.51896289	     29.51896289	     14.42570644	     -4.67339618	     -7.47918087	     25.94726035	     -5.09241680	     -0.89868111	     25.20360674	     25.20360674	      8.80651428	    -10.34050459	      2.44377975	     -7.58282497	      4.38584358	      3.03567232	     29.97602416	    -15.33799231	      1.49482027	     91.48530960	     44.75328186	      0.00000000	      0.00000000	     -3.70529290	     -7.96667873	     -6.14115490	     31.15956150	     45.56819606	      0.00000000	      0.00000000
     23.17342857	     -5.29439002	     -4.89219713	      2.92894634	      0.86181982	      0.92483085	      0.44997120	      6.50324240	     -1.78919795	    -13.03632595	     33.13893729	     33.13893729	     13.15745037	     -6.49358892	     -8.20704888	     25.34997448	     -5.01238021	     -1.38430978	     24.91812409	     24.91812409	      9.14073894	    -10.15856373	      2.11537225	     -7.59647083	      4.09437202	      3.03884779	     28.73103280	    -15.21950533	      1.87184205	     89.85536708	     44.79285315	      0.00000000	      0.00000000	     -2.90834106	     -8.22626478	     -6.12666846	     31.89751263	     45.58271699	      0.00000000	      0.00000000
     23.18685714	     -5.31079507	     -4.88799345	      2.59164951	      0.86129878	      0.92551000	      0.44819129	      8.19590456	     -2.13141096	    -12.09151619	     36.54461926	     36.54461926	     11.00389171	     -9.32232544	    -10.19419828	     24.72175042	     -5.04047047	     -1.81842324	     24.66468644	     24.66468644	      9.16662944	    -10.12749355	      1.17853342	     -7.65559476	      3.90542690	      2.29995392	     28.21805567	    -14.42095797	      2.80047247	     86.41338276	     44.89162461	      0.00000000	      0.00000000	     -2.83463357	     -8.68118261	     -5.79976371	     33.77698491	     45.56401147	      0.00000000	      0.00000000
     23.20028571	     -5.33352912	     -4.67666346	      2.26379063	      0.86062913	      0.92589894	      0.44610820	     10.12626340	     -2.89149612	    -11.51927716	     40.41246513	     40.41246513	      9.56508835	    -10.94603683	    -10.33481362	     24.10538616	     -4.79879311	     -2.21749859	     24.45469627	     24.45469627	      9.48486857	    -10.11039208	      0.96493599	     -7.78504467	      3.60005243	      2.31300293	     26.69410992	    -14.45870526	      3.22207651	     85.12807117	     44.91678880	      0.00000000	      0.00000000	     -1.94846275	     -8.95639543	     -5.80746371	     34.50528555	     45.58461999	      0.00000000	      0.00000000
     23.21371429	     -5.26640740	     -4.49288226	      1.94968847	      0.85995807	      0.92623598	      0.44406987	     11.96975986	     -3.52585991	    -10.89066134	     44.12316663	     44.12316663	      8.06367138	    -12.70417903	    -10.09550834	     23.47589079	     -4.57329474	     -2.55551958	     24.38191000	     24.38191000	      9.82485048	    -10.20006939	      0.75931929	     -8.00258107	      3.32835559	      2.24865537	     25.11223099	    -14.40242413	      3.58124848	     83.68259421	     44.94767070	      0.00000000	      0.00000000	     -0.96827339	     -9.24115443	     -5.79632266	     35.25652043	     45.60255192	      0.00000000	      0.00000000
     23.22714286	     -5.31843173	     -4.44404560	      1.65589284	      0.85912767	      0.92632870	      0.44211141	     14.00009784	     -3.85245031	    -10.10934868	     47.70305066	     47.70305066	      6.59621787	    -14.78224610	     -9.11412410	     23.02062177	     -4.44929855	     -2.70794519	     24.32783154	     24.32783154	     10.07365305	    -10.45760623	      0.56145140	     -8.02863268	      3.23950963	      2.29074926	     23.55056983	    -14.46237474	      3.83402877	     81.37379655	     45.01164881	      0.00000000	      0.00000000	     -0.10318900	     -9.48591926	     -5.66187240	     36.33329658	     45.60768604	      0.00000000	      0.00000000
     23.24057143	     -5.21254186	     -4.34117654	      1.40001412	      0.85831416	      0.92645270	      0.44009351	     15.94434698	     -4.26813034	     -9.49531203	     51.36557801	     51.36557801	      6.56764898	    -15.56652359	     -4.63093854	     22.44821995	     -4.24486599	     -2.77773079	     24.35941227	     24.35941227	     10.26541010	    -10.85073232	      0.16666249	     -8.21335408	      3.12161020	      1.44104320	     22.93443357	    -13.62899157	      4.43687319	     77.31752608	     45.13474473	      0.00000000	      0.00000000	     -0.10355312	    -10.22562140	     -4.67555468	     38.60905022	     45.54559514	      0.00000000	      0.00000000
     23.25400000	     -5.01385302	     -4.21202388	      1.20836304	      0.85765043	      0.92664701	      0.43793397	     17.54364363	     -4.76156036	     -9.14611540	     54.32840353	     54.32840353	      5.36695063	    -16.74395988	     -4.17350267	     21.81828863	     -4.01548282	     -2.90583137	     24.48941846	     24.48941846	     10.66595517	    -11.01708922	      0.03572598	     -8.58960041	      3.02643607	      1.29152828	     20.94234394	    -13.66284177	      4.78338131	     76.05445033	     45.15673518	      0.00000000	      0.00000000	      0.99447159	    -10.47517405	     -4.72464613	     39.22599700	     45.57198867	      0.00000000	      0.00000000
     23.26742857	     -5.00987139	     -4.20567769	      0.91575101	      0.85680624	      0.92667007	      0.43601275	     19.51639267	     -4.91134203	     -8.52030078	     57.30019316	     57.30019316	      5.71334132	    -17.34998410	      0.67438093	     21.37956160	     -3.88044380	     -2.85935513	     24.55407300	     24.55407300	     11.05156420	    -11.54082536	      0.35957548	     -8.57379481	      3.11394270	      1.34937672	     19.71373872	    -13.47666713	      4.43056342	     71.91699508	     45.30306157	      0.00000000	      0.00000000	      1.76523010	    -10.79835467	     -4.07185223	     40.61081735	     45.55744637	      0.00000000	      0.00000000
     23.28085714	     -4.90407749	     -4.17342790	      0.67774430	      0.85612797	      0.92675263	      0.43408362	     21.18436471	     -5.16320697	     -8.17087612	     59.70811307	     59.70811307	      5.84710901	    -17.72386014	      3.68418271	     20.87688289	     -3.76088336	     -2.95530294	     24.72804846	     24.72804846	     11.55857081	    -11.68732719	      0.53125375	     -8.75527024	      3.18821876	      1.30171147	     18.01476930	    -13.47070597	      4.62389699	     69.17220227	     45.37781290	      0.00000000	      0.00000000	      2.60908587	    -11.13901934	     -3.74056212	     41.84626505	     45.58857779	      0.00000000	      0.00000000
     23.29428571	     -4.79670732	     -4.16116802	      0.43687399	      0.85549222	      0.92688772	      0.43223806	     22.67515299	     -5.39310790	     -7.94124878	     61.50606850	     61.50606850	      5.40374353	    -18.16286762	      4.19438852	     20.34189358	     -3.66809897	     -3.08131619	     24.83599841	     24.83599841	     11.94955689	    -11.86695335	      0.49957258	     -8.94802325	      3.30741677	      1.55410681	     15.93836005	    -13.82140187	      4.81865863	     67.17831274	     45.42738588	      0.00000000	      0.00000000	      3.74785142	    -11.22349223	     -3.79947380	     42.73359374	     45.62412209	      0.00000000	      0.00000000
     23.30771429	     -4.56944767	     -4.22963230	      0.25527872	      0.85506015	      0.92731513	      0.43055113	     23.84696424	     -5.50609986	     -7.86143288	     62.73853022	     62.73853022	      5.11561636	    -18.47204994	      4.45827257	     19.64302064	     -3.65314435	     -3.12713191	     24.90077296	     24.90077296	     12.37951588	    -11.97228803	      0.42017915	     -9.25002387	      3.54136030	      1.35124400	     13.87348242	    -13.76307430	      5.05439140	     65.65833745	     45.45994408	      0.00000000	      0.00000000	      4.68091632	    -11.54471326	     -3.89502162	     43.35280358	     45.65258269	      0.00000000	      0.00000000
     23.32114286	     -4.50639970	     -4.33599582	     -0.05999018	      0.85444504	      0.92769259	      0.42921622	     25.26639251	     -5.37570966	     -7.54673538	     63.73216166	     63.73216166	      5.73439431	    -18.44613447	      7.29442195	     19.07159399	     -3.73114152	     -3.31819391	     24.87608929	     24.87608929	     12.91102822	    -11.95679474	      0.86880893	     -9.30395640	      3.76978829	      1.48359654	     13.22229342	    -13.21503667	      4.18735734	     59.34566447	     45.69481762	      0.00000000	      0.00000000	      5.29086060	    -11.76700564	     -3.47395725	     45.16437323	     45.67159951	      0.00000000	      0.00000000
